<?xml version="1.0" encoding="utf-8"?>
<!-- Generator: Adobe Illustrator 26.2.1, SVG Export Plug-In . SVG Version: 6.00 Build 0)  -->
<svg version="1.1" id="Layer_1" xmlns="http://www.w3.org/2000/svg" xmlns:xlink="http://www.w3.org/1999/xlink" x="0px" y="0px"
	 width="126px" height="32px" viewBox="0 0 126 32" style="enable-background:new 0 0 126 32;" xml:space="preserve">
<style type="text/css">
	.st0{fill:#2AD3D3;}
	.st1{fill:#FFF657;}
</style>
<g>
	<g id="a">
		<g>
			<path class="st0" d="M7.5,27.6l-3.2-3.2c2.5,2.4,6,3.9,10.1,3.9c2.5,0,5.8-0.5,7.6-1.5v-6.1l3.9,3.9v6.1
				c-1.8,0.9-5.1,1.3-7.6,1.3C13.5,32,10,30.2,7.5,27.6L7.5,27.6z M6.5,14c0-4.5,3-8.1,8.7-8.1c2.7,0,5.3,0.8,6.9,2.2V1.7l3.9,3.9
				v6.2c-1.7-1.5-4.6-2.7-7.3-2.7c-5.7,0-8.7,3.6-8.7,8.1c0,1.8,0.3,3.2,1.3,4.4C8,20.2,6.5,17.3,6.5,14L6.5,14z"/>
			<path class="st0" d="M28.9,27.7H35V16.8h10.2v3.9h-6.1v10.9h-6.3L28.9,27.7z M35,0.5l4.1,3.9V11H35V0.5z M45.2,27.7h6.1V0.5
				l4.1,3.9v27.1h-6.3L45.2,27.7L45.2,27.7z"/>
			<path class="st0" d="M59.4,27.7h6.2V0.5l4.1,3.9v27.1h-6.4L59.4,27.7L59.4,27.7z"/>
			<path class="st0" d="M73.5,27.7h6.1v-8.8h3.6l2,3.3h-1.6v9.3h-6L73.5,27.7L73.5,27.7z M79.6,6.1h4.5c2.3,0,3.9,1.5,4.1,3.5h-4.9
				v4.3h-3.7C79.6,13.8,79.6,6.1,79.6,6.1z M88.5,27.7h7.3l-6.3-10.1c2.9-1.7,4.9-4.7,4.9-8c0-2.3-0.8-4.3-2.3-5.9l3,3
				c1.9,1.9,3.1,3.7,3.1,6.7c0,2.7-1.6,5.3-3.9,6.8l7.5,11.3h-7.1L88.5,27.7L88.5,27.7z"/>
			<path class="st0" d="M101.7,27.7h6.1v-8h4.1c6.3,0,10.5-4.5,10.5-9.9c0-2.5-0.9-4.6-2.4-6.2l3.2,3.1c1.6,1.6,2.8,3.6,2.8,6.9
				c0,5.2-4.5,9.7-10.7,9.7h-3.3v8.2h-6.3L101.7,27.7z M107.9,6h4.4c2.3,0,3.9,1.6,4.1,3.7c-0.1,0-0.3,0-0.4,0h-4.4v4.6h-3.7V6
				L107.9,6z"/>
		</g>
	</g>
	<g id="b">
		<g>
			<path class="st1" d="M0,14.2C0,6.5,5.9,0,14.4,0C17,0,20.2,0.6,22,1.7V8c-1.6-1.3-4.2-2.2-6.9-2.2c-5.7,0-8.7,3.6-8.7,8.1
				s3.2,8.5,8.9,8.5c2.4,0,4.8-0.7,6.7-1.7v6.1c-1.8,1-5.1,1.5-7.6,1.5C5.8,28.3,0,21.9,0,14.2z"/>
			<path class="st1" d="M28.9,0.5H35V11h10.2V0.5h6.1v27.1h-6.1V16.8H35v10.9h-6.1L28.9,0.5L28.9,0.5z"/>
			<path class="st1" d="M59.4,0.5h6.2v27.1h-6.2V0.5z"/>
			<path class="st1" d="M73.5,0.5h10.7c5.9,0,10.2,3.9,10.2,9c0,3.3-2,6.2-4.9,8l6.3,10.1h-7.3l-5.3-8.8h-3.6v8.8h-6.1L73.5,0.5
				L73.5,0.5z M84.1,13.8c2.5,0,4.1-1.8,4.1-3.9s-1.6-3.9-4.1-3.9h-4.5v7.8L84.1,13.8L84.1,13.8z"/>
			<path class="st1" d="M101.7,0.5h10.7c5.9,0,10.2,3.9,10.2,9.2s-4.2,9.9-10.5,9.9h-4.1v8h-6.1V0.5z M112.2,14.2
				c2.5,0,4.1-2,4.1-4.1c0-2.3-1.6-4.1-4.1-4.1h-4.4v8.2H112.2z"/>
		</g>
	</g>
</g>
</svg>
